<svg id="レイヤー_1" data-name="レイヤー 1" xmlns="http://www.w3.org/2000/svg" viewBox="0 0 595.28 841.89"><defs><style>.cls-1{fill:#2e312f;}.cls-2{fill:#4cbd8e;}.cls-3{fill:#49b98b;}.cls-4{fill:#ed4886;}.cls-5{fill:#fae717;}</style></defs><path class="cls-1" d="M54,219.14V134.79c2-2.51,3.59-5.48,6-7.44,7-5.62,9.83-13.16,11.19-21.59,1.29-8,3.13-16,3.83-24C76.92,60.37,88.26,46.16,107.2,37.3c2.77-1.3,5.45-2.78,8.25-4,36.86-16.21,75.82-23.13,115.69-23.35,62.31-.35,124.41,4.65,186.28,11.85,28.17,3.28,55.47,10.22,80.45,24.4,16.51,9.37,27.87,23,30.6,42a117.88,117.88,0,0,0,8.89,30,160.2,160.2,0,0,1,12.75,52.73c3.56,52.81,4.38,105.72,5.45,158.63,2.93,145.17-2.08,290.31-1.48,435.46a23,23,0,0,1-5.7,15.68c-13.58,15.79-29.82,27.64-49.79,34-28.6,9.15-58.3,11.54-87.91,14.61-7,.72-14.19.1-21,2.63H331.79c-.44-1.37-1.6-1.24-2.66-1.29-35.49-1.78-71-3.31-106.44-5.42-32.58-1.94-65.14-4.39-97.08-11.76-19.68-4.54-37.86-12.11-53.19-25.71-4.25-3.78-6.34-7.43-2.94-13,2.8-4.63,3-9.92,2.09-15.31-2.18-13.63-5-27.18-5.51-41-1.29-37.09-3-74.17-3.69-111.27q-3.78-191-7.07-382.08C55.26,223.09,56.51,220.66,54,219.14ZM93.62,788.4l-.24,0,.33,0c2.29,6,8.07,6.75,13.05,8,22.81,5.61,46.08,8,69.47,9.83,64.93,5,130.16,1.21,195.06,7.12,16.89,1.54,33.6-2.55,50.42-3.6,18.58-1.16,37.08-3,55.31-6.91,11-2.34,20.71-7.37,29.84-13.81a14.63,14.63,0,0,0-5.3.14c-11.55,2.39-23,5.09-34.64,7.23-20.49,3.79-41.32,4.92-62.05,6.18-15.73.95-31.54,2.73-47.29,1.41a472,472,0,0,0-61.09-1.42c-41.91,1.92-83.72-.28-125.37-4.46C145.24,795.41,119.31,792.79,93.62,788.4Zm227.19-4c12.89-.34,35.26,1.36,57.56-1.77s44.7-5.86,67.12-8.2c17.24-1.81,33.8-7.15,51.09-8.83,11.9-1.16,23.87-3.23,35.1-8,2.36-1,4-1.52,3.74-4.94a534.28,534.28,0,0,1-1-59.89c.76-21.71,3.6-43.37,3.74-65.07.49-72.45,2.57-144.91-1.43-217.36-2.07-37.47,0-75-2-112.59-1.29-23.62,0-47.33-2.53-71-2.35-21.85.11-43.89.18-65.84,0-6.05-2.06-6.46-6.79-4.6-10.38,4.08-20.56,8.87-31.93,9.69-8,.58-15.47,3.08-22.87,5.76-25.09,9.06-51.36,15-77.5,16.34-41.91,2.1-84,4.47-126.13-.4-37.19-4.31-74.81-5.3-111.21-15-18.11-4.83-36.93-7.62-53.51-17.38-9.05-5.33-18.34-10.27-27.67-15.09-2.9-1.49-6.15-4.27-9.63-1.29-3.17,2.72-3.14,6.33-2.26,10.2,7.35,32.27,7.72,65.32,10.58,98.07,3.38,38.62,1.23,77.23-1.8,115.77-2.08,26.55-3.29,53.09.74,79.52,3.09,20.26,4.67,40.61,3.68,61-1.26,26.14-.84,52.23,0,78.36,1.25,38.23-2.2,76.39-2,114.6a258.62,258.62,0,0,0,9.37,66.95c.56,2,.6,5.35,3.93,5.34,10.41,0,20.12,4.16,30.41,4.91q55.4,4,110.76,8.25C256.12,784.1,283.73,784.74,320.81,784.39Zm38.7-655c-1.69-.82-3.34-1.72-5.07-2.45-16.12-6.78-32.07-13.9-46-24.71-3.87-3-7.63-6-12.74-5.78-5.78.21-10.8-1.26-14.93-5.45-2.1-2.13-3.94-2.67-5.13,1-1.51,4.59-5.38,5.9-9.64,6.84-13.28,2.94-27,1.44-40.32,3.93-2.08.39-4.35-.28-6.54-.34-22-.65-43.19-6.83-65-9-5.52-.55-11.28-1.8-15.65-6.11q-6.22-6.14-12.72-12C116.64,67,117.67,58.92,128,52.05c12.17-8.06,25.41-9.81,39.54-9,8.06.45,16.41.88,24.24-.66,13.18-2.59,25.63-.33,38.27,2.56,2.66.6,5.22,2.07,8.26,1.25,11.74-3.17,22.12,1.36,31.73,7.06,3.47,2.06,5.22,2.57,8.71.72,11.44-6.07,27.55-5.41,34.63,1.73,3.59,3.63,6.83,3.81,11.07,2.25,13.89-5.12,27.12-11.85,42.26-13.63,18.88-2.22,37.45-7.14,56.73-5.62,12.41,1,21.21,6.52,26.78,18,8.77,18.07,10.44,37.42,11.42,56.94.4,7.86.11,7.88,7.31,4,9.37-5.11,18.71-10.16,27.75-16,7.68-4.92,13.22-10.39,16.63-18.51,2.27-5.42,1.27-10-2.47-14.62-7.91-9.69-18.27-15.89-29.62-20-39.4-14.24-80.08-22.62-122-23-28.74-.3-57.36-2.71-86.08-3.46-35.77-.92-71.42-2.21-106.67,5.71C145.75,32.37,125.31,38,106.58,48.35A68.11,68.11,0,0,0,89.86,61c-3.28,3.49-6.8,7.4-5.34,12.77,2.7,10,8.15,18.28,18.43,21.51,30,9.43,59.76,20.12,90.86,25.58,24.22,4.26,48.8,5,73.37,4.94,9.2,0,18.4.12,27.61.51C316.24,127.25,337.52,130.62,359.51,129.4ZM81,99.51c1.31,4.8,3.11,9.55,1.79,13.81C79.56,123.8,86,127,93.73,129.78c1.85.65,3.57,1.67,5.4,2.39,27.94,11.06,56.86,18.55,86.35,24.15,35.38,6.71,71.1,10,107,11.93,19.74,1.06,39.43-1,59.08-1,28.71,0,56-6.24,83.33-13.27,15.87-4.07,31.45-9.92,47.95-10.6,13.63-.55,26.12-5,38.8-9,2.41-.77,6.68-1.47,5.5-5.18a77.81,77.81,0,0,1-3.78-28.75c-10.77,11.68-21.05,21.75-34.51,27.67-12.36,5.42-25.87,8.08-37.42,15.51a16.32,16.32,0,0,1-4.95,1.65c-16.21,3.91-32.8,5.41-49.21,8-10.09,1.63-20,1.14-30.1.64-10.69-.54-21.55-2.54-32.08-.44-11.87,2.36-23.48,2-35.23.27-21.43-3.08-42.82-6.42-64.39-8.6-18.5-1.87-37.16-3.38-55.31-7.15-31.38-6.52-60.87-18.65-88.93-34.18C88.21,102.13,85.26,100.28,81,99.51ZM391.1,133a78.29,78.29,0,0,0,39.2-1.19c5-1.43,10.28-4.4,10.92-10.26,2.09-19.24,3.15-38.47-4.14-57.1-2.4-6.16-6.77-9.12-13-9.15-7,0-14.16-.26-21,1-25.36,4.54-51.21,6.3-76.62,13.71,3.55,6,5.34,12.46,2.05,19.55-1.35,2.92,1.76,3.34,3.39,4.62,15.22,12,34.19,13.79,51.85,19.09,2.91.88,7.84,3.37,9-1.45,1-4-4.35-3.47-6.85-4.73-10.55-5.3-21.73-9.38-31.41-16.34-5.8-4.16-6.33-12-.62-14.67,15.81-7.28,32.25-12.5,50-10.83,8.84.82,13,5.63,13.57,14.77.43,6.57.34,13.25,1.56,19.67,1.43,7.47-1.53,12.67-6.39,17.58C406.33,123.62,399.73,129.59,391.1,133Zm10.5-44c-.14-9.1-.14-9.13-8.75-6.93-2.32.6-4.56,1.6-6.9,2-4.05.78-8.29,2-11.48-2.11-.83-1.06-1.89-2.45-3.09-1.11-1.87,2.07.71,2.57,1.75,3.1Q383.35,89.15,393.7,94C401.69,97.78,401.72,97.71,401.6,89Zm-115-15.18c5.32,3.12,9.83,6.1,15.19,7.48,2.89.74,4.71-.94,6-2.92,1.46-2.21-.49-3.74-2-4.86C300.35,69.54,293.43,69.54,286.58,73.8Z"/><path class="cls-2" d="M320.81,784.39c-37.08.35-64.69-.29-92.26-2.46q-55.37-4.35-110.76-8.25c-10.29-.75-20-4.91-30.41-4.91-3.33,0-3.37-3.3-3.93-5.34a258.62,258.62,0,0,1-9.37-66.95c-.23-38.21,3.22-76.37,2-114.6-.85-26.13-1.27-52.22,0-78.36,1-20.41-.59-40.76-3.68-61-4-26.43-2.82-53-.74-79.52,3-38.54,5.18-77.15,1.8-115.77-2.86-32.75-3.23-65.8-10.58-98.07-.88-3.87-.91-7.48,2.26-10.2,3.48-3,6.73-.2,9.63,1.29,9.33,4.82,18.62,9.76,27.67,15.09,16.58,9.76,35.4,12.55,53.51,17.38,36.4,9.69,74,10.68,111.21,15,42.1,4.87,84.22,2.5,126.13.4,26.14-1.32,52.41-7.28,77.5-16.34,7.4-2.68,14.91-5.18,22.87-5.76,11.37-.82,21.55-5.61,31.93-9.69,4.73-1.86,6.81-1.45,6.79,4.6-.07,21.95-2.53,44-.18,65.84,2.55,23.68,1.24,47.39,2.53,71,2,37.54,0,75.12,2,112.59,4,72.45,1.92,144.91,1.43,217.36-.14,21.7-3,43.36-3.74,65.07a534.28,534.28,0,0,0,1,59.89c.26,3.42-1.38,3.94-3.74,4.94-11.23,4.76-23.2,6.83-35.1,8-17.29,1.68-33.85,7-51.09,8.83q-33.63,3.51-67.12,8.2C356.07,785.75,333.7,784.05,320.81,784.39Zm69.93-347.57c-11.16-.52-22.32-1.15-33.5-1.51-12-.4-24.09-.54-36.14-.79.89-.63,1.74-1.32,2.68-1.87,33.12-19.61,66-39.65,97.47-61.81,10.89-7.67,22-15.43,28.23-27.82s-1.66-25.58-15.66-26.21c-4.14-.18-8.31,0-12.46.07-9.4-4.05-18.91-7.76-28.67-10.93-23.29-7.55-47.38-11.87-70.95-18.28.54-1.19,1.06-2.4,1.64-3.58,5.15-10.46,2.52-20.66-6.6-25.52-9.5-5.07-19.83-1.47-25.46,8.9-2.19,4-3.95,8.39-6.58,12.12Q245.71,334.9,206.4,390c-15,20.93-31.7,40.26-52.6,55.71a171.89,171.89,0,0,0-26.4,23.68c-11.6,13-8.6,32.21,6.52,40.55,7.49,4.13,16,4.44,24.34,4.56,26.52.4,53,1.47,79.29,5.34,22.57,3.33,44.53,9.3,66.15,16.56-3,5.42-7.26,9.9-11.38,14.46-1.91.25-2.84,1.74-4.06,3-19.48,20.22-35.08,43.57-52.67,65.31-19.34,23.91-33.28,51.3-49,77.55-3.31,5.55-4.79,11.74-3.08,18.3a187.67,187.67,0,0,0-8.21,27.66c-.89,4.52-.42,8.83,3.73,11.82,3.87,2.8,7.62,1.21,11.06-.8a166.83,166.83,0,0,0,14.39-9.17c12.22-8.87,25.79-16.35,35.53-28a375.94,375.94,0,0,0,27.31-37.85c30.27-47,64-91.17,105.14-129.33A150.43,150.43,0,0,0,397,521c9.64-5.36,17.18-13.35,25.17-20.7s16.53-14.41,22.61-23.7c10-15.3,3.45-32.75-14.18-37C417.49,436.39,404.09,436.75,390.74,436.82Z"/><path class="cls-3" d="M359.51,129.4c-22,1.22-43.27-2.15-64.72-3.06-9.21-.39-18.41-.52-27.61-.51-24.57,0-49.15-.68-73.37-4.94C162.71,115.43,133,104.74,103,95.31,92.67,92.08,87.22,83.82,84.52,73.8c-1.46-5.37,2.06-9.28,5.34-12.77a68.11,68.11,0,0,1,16.72-12.68c18.73-10.39,39.17-16,59.92-20.64,35.25-7.92,70.9-6.63,106.67-5.71,28.72.75,57.34,3.16,86.08,3.46,41.95.43,82.63,8.81,122,23,11.35,4.11,21.71,10.31,29.62,20,3.74,4.59,4.74,9.2,2.47,14.62-3.41,8.12-8.95,13.59-16.63,18.51-9,5.79-18.38,10.84-27.75,16-7.2,3.92-6.91,3.9-7.31-4-1-19.52-2.65-38.87-11.42-56.94-5.57-11.49-14.37-17-26.78-18-19.28-1.52-37.85,3.4-56.73,5.62-15.14,1.78-28.37,8.51-42.26,13.63-4.24,1.56-7.48,1.38-11.07-2.25-7.08-7.14-23.19-7.8-34.63-1.73-3.49,1.85-5.24,1.34-8.71-.72-9.61-5.7-20-10.23-31.73-7.06-3,.82-5.6-.65-8.26-1.25C217.45,42,205,39.77,191.82,42.36c-7.83,1.54-16.18,1.11-24.24.66-14.13-.78-27.37,1-39.54,9-10.37,6.87-11.4,14.93-2.24,23.22q6.49,5.87,12.72,12c4.37,4.31,10.13,5.56,15.65,6.11,21.78,2.18,43,8.36,65,9,2.19.06,4.46.73,6.54.34,13.33-2.49,27-1,40.32-3.93,4.26-.94,8.13-2.25,9.64-6.84,1.19-3.64,3-3.1,5.13-1,4.13,4.19,9.15,5.66,14.93,5.45,5.11-.18,8.87,2.77,12.74,5.78,13.93,10.81,29.88,17.93,46,24.71C356.17,127.68,357.82,128.58,359.51,129.4Z"/><path class="cls-3" d="M81,99.51c4.24.77,7.19,2.62,10.21,4.29,28.06,15.53,57.55,27.66,88.93,34.18,18.15,3.77,36.81,5.28,55.31,7.15,21.57,2.18,43,5.52,64.39,8.6,11.75,1.69,23.36,2.09,35.23-.27,10.53-2.1,21.39-.1,32.08.44,10.07.5,20,1,30.1-.64,16.41-2.64,33-4.14,49.21-8a16.32,16.32,0,0,0,4.95-1.65c11.55-7.43,25.06-10.09,37.42-15.51,13.46-5.92,23.74-16,34.51-27.67a77.81,77.81,0,0,0,3.78,28.75c1.18,3.71-3.09,4.41-5.5,5.18-12.68,4-25.17,8.49-38.8,9-16.5.68-32.08,6.53-47.95,10.6-27.37,7-54.62,13.29-83.33,13.27-19.65,0-39.34,2.09-59.08,1-35.9-1.93-71.62-5.22-107-11.93-29.49-5.6-58.41-13.09-86.35-24.15-1.83-.72-3.55-1.74-5.4-2.39-7.77-2.75-14.17-6-10.92-16.46C84.13,109.06,82.33,104.31,81,99.51Z"/><path class="cls-3" d="M391.1,133c8.63-3.4,15.23-9.37,21.55-15.77,4.86-4.91,7.82-10.11,6.39-17.58-1.22-6.42-1.13-13.1-1.56-19.67-.6-9.14-4.73-14-13.57-14.77-17.77-1.67-34.21,3.55-50,10.83-5.71,2.63-5.18,10.51.62,14.67,9.68,7,20.86,11,31.41,16.34,2.5,1.26,7.85.73,6.85,4.73-1.2,4.82-6.13,2.33-9,1.45-17.66-5.3-36.63-7.11-51.85-19.09-1.63-1.28-4.74-1.7-3.39-4.62,3.29-7.09,1.5-13.6-2.05-19.55,25.41-7.41,51.26-9.17,76.62-13.71,6.85-1.22,14-1,21-1,6.24,0,10.61,3,13,9.15,7.29,18.63,6.23,37.86,4.14,57.1-.64,5.86-5.9,8.83-10.92,10.26A78.29,78.29,0,0,1,391.1,133Z"/><path class="cls-3" d="M93.63,788.4c25.68,4.39,51.61,7,77.49,9.61,41.65,4.18,83.46,6.38,125.37,4.46a472,472,0,0,1,61.09,1.42c15.75,1.32,31.56-.46,47.29-1.41,20.73-1.26,41.56-2.39,62.05-6.18,11.6-2.14,23.09-4.84,34.64-7.23a14.63,14.63,0,0,1,5.3-.14C497.73,795.37,488,800.4,477,802.74c-18.23,3.91-36.73,5.75-55.31,6.91-16.82,1.05-33.53,5.14-50.42,3.6-64.9-5.91-130.13-2.08-195.06-7.12-23.39-1.82-46.66-4.22-69.47-9.83-5-1.23-10.76-2-13.05-8Z"/><path class="cls-3" d="M401.6,89c.12,8.73.09,8.8-7.9,5Q383.34,89.17,373.13,84c-1-.53-3.62-1-1.75-3.1,1.2-1.34,2.26,0,3.09,1.11,3.19,4.07,7.43,2.89,11.48,2.11,2.34-.44,4.58-1.44,6.9-2C401.46,79.85,401.46,79.88,401.6,89Z"/><path class="cls-3" d="M286.58,73.8c6.85-4.26,13.77-4.26,19.19-.3,1.54,1.12,3.49,2.65,2,4.86-1.32,2-3.14,3.66-6,2.92C296.41,79.9,291.9,76.92,286.58,73.8Z"/><path class="cls-3" d="M93.71,788.32l-.33,0,.24,0Z"/><path class="cls-4" d="M321.74,287.67c23.57,6.41,47.66,10.73,70.95,18.28,9.76,3.17,19.27,6.88,28.67,10.93.68.52,1.34,1.08,2.05,1.56,15.54,10.32,15.65,24.83-.16,34.88-11.06,7-22.45,13.6-34,19.88-33.06,18-65.5,37-97,57.59-1.29.84-3.13,1.29-3.46,3.73H321.1c12,.25,24.1.39,36.14.79,11.18.36,22.34,1,33.5,1.51l7.64,1.68c23.91,5.3,29.72,23,13.49,41.27-4.49,5.05-9.35,9.78-13.89,14.79-2.69,3-3.84,6.33-1.5,10.17,3.26,5.32,3.11,10.77.5,16.28a150.43,150.43,0,0,1-24.47,28.35c-41.17,38.16-74.87,82.3-105.14,129.33a375.94,375.94,0,0,1-27.31,37.85c-9.74,11.66-23.31,19.14-35.53,28a166.83,166.83,0,0,1-14.39,9.17c-3.44,2-7.19,3.6-11.06.8-4.15-3-4.62-7.3-3.73-11.82A187.67,187.67,0,0,1,183.56,715c5.54-11.7,11.41-23.34,19.06-33.71,30.22-41,58-83.66,87.36-125.19,1.12-1.59,2.61-3,2.34-5.26,4.12-4.56,8.35-9,11.38-14.46,2.1-3.07,4.06-6.24,6.33-9.19,3.47-4.52,1.39-5.66-3.18-6.26-23.68-3.1-47.47-5-71.3-6.59-19.22-1.29-38.6-1.25-57.56-5-22.89-4.49-33.44-30.24-20.64-49.76a156.33,156.33,0,0,1,12-15.63c31.34-36.66,63-73,92.44-111.28,4.93-6.41,9.26-13.3,13.59-20.14,2.06-3.26,1.77-7.83,5.34-10.31C293.07,293.7,304.85,283.49,321.74,287.67Z"/><path class="cls-5" d="M321.74,287.67c-16.89-4.18-28.67,6-41,14.62-3.57,2.48-3.28,7-5.34,10.31-4.33,6.84-8.66,13.73-13.59,20.14C232.41,371,200.71,407.36,169.37,444a156.33,156.33,0,0,0-12,15.63c-12.8,19.52-2.25,45.27,20.64,49.76,19,3.72,38.34,3.68,57.56,5,23.83,1.6,47.62,3.49,71.3,6.59,4.57.6,6.65,1.74,3.18,6.26-2.27,2.95-4.23,6.12-6.33,9.19-21.62-7.26-43.58-13.23-66.15-16.56-26.28-3.87-52.77-4.94-79.29-5.34-8.37-.12-16.85-.43-24.34-4.56-15.12-8.34-18.12-27.51-6.52-40.55a171.89,171.89,0,0,1,26.4-23.68C174.7,430.28,191.42,411,206.4,390q39.39-55,78.34-110.43c2.63-3.73,4.39-8.08,6.58-12.12,5.63-10.37,16-14,25.46-8.9,9.12,4.86,11.75,15.06,6.6,25.52C322.8,285.27,322.28,286.48,321.74,287.67Z"/><path class="cls-5" d="M321.1,434.52H288.78c.33-2.44,2.17-2.89,3.46-3.73,31.54-20.56,64-39.58,97-57.59,11.52-6.28,22.91-12.84,34-19.88,15.81-10.05,15.7-24.56.16-34.88-.71-.48-1.37-1-2.05-1.56,4.15,0,8.32-.25,12.46-.07,14,.63,21.94,13.74,15.66,26.21s-17.34,20.15-28.23,27.82C389.76,393,356.9,413,323.78,432.65,322.84,433.2,322,433.89,321.1,434.52Z"/><path class="cls-5" d="M397,521c2.61-5.51,2.76-11-.5-16.28-2.34-3.84-1.19-7.21,1.5-10.17,4.54-5,9.4-9.74,13.89-14.79,16.23-18.28,10.42-36-13.49-41.27l-7.64-1.68c13.35-.07,26.75-.43,39.84,2.76,17.63,4.28,24.2,21.73,14.18,37-6.08,9.29-14.59,16.32-22.61,23.7S406.62,515.65,397,521Z"/><path class="cls-5" d="M292.32,550.88c.27,2.22-1.22,3.67-2.34,5.26-29.4,41.53-57.14,84.22-87.36,125.19-7.65,10.37-13.52,22-19.06,33.71-1.71-6.56-.23-12.75,3.08-18.3,15.67-26.25,29.61-53.64,49-77.55,17.59-21.74,33.19-45.09,52.67-65.31C289.48,552.62,290.41,551.13,292.32,550.88Z"/></svg>